<?xml version="1.0" standalone="no"?><!DOCTYPE svg PUBLIC "-//W3C//DTD SVG 1.1//EN" "http://www.w3.org/Graphics/SVG/1.1/DTD/svg11.dtd"><svg t="1779258647513" class="icon" viewBox="0 0 1024 1024" version="1.1" xmlns="http://www.w3.org/2000/svg" p-id="19186" xmlns:xlink="http://www.w3.org/1999/xlink" width="200" height="200"><path d="M0 0v1024h1024V0H0z m300.416 128a215.424 215.424 0 0 1 9.344 0c79.36 0 128 25.6 166.4 66.56L417.28 263.68C384 232.96 350.72 215.04 309.76 215.04c-71.68 0-122.88 58.88-122.88 133.12 0 71.68 51.2 133.12 122.88 133.12 48.64 0 79.36-20.48 112.64-48.64l58.88 58.88c-43.52 46.08-92.16 76.8-174.08 76.8a217.6 217.6 0 0 1-217.6-220.16A215.424 215.424 0 0 1 300.373333 128z m244.821333 5.12H640v345.6h184.32v79.36h-279.04V133.12zM97.28 832h384V896h-384v-64z" p-id="19187" fill="#2c2c2c"></path></svg>