<?xml version="1.0" standalone="no"?><!DOCTYPE svg PUBLIC "-//W3C//DTD SVG 1.1//EN" "http://www.w3.org/Graphics/SVG/1.1/DTD/svg11.dtd"><svg t="1779258415683" class="icon" viewBox="0 0 1024 1024" version="1.1" xmlns="http://www.w3.org/2000/svg" p-id="6588" xmlns:xlink="http://www.w3.org/1999/xlink" width="200" height="200"><path d="M58.456693 517.942425L349.127559 617.197858a25.720945 25.720945 0 0 0 32.663181-15.916346 25.720945 25.720945 0 0 0-15.908283-32.663181L75.001953 469.362898c-21.149228-7.337323-23.447181-26.180535-23.447181-31.832693-0.209638-5.652157 0.838551-24.713071 21.568504-33.300158l850.403779-349.917732c19.891402-8.167811 33.921008 3.77348 37.896063 7.538898 3.77348 3.77348 15.706709 18.012724 7.538898 37.904126L619.044283 950.368756c-8.587087 20.72189-27.639937 21.770079-33.300157 21.568504-5.644094-0.209638-24.705008-2.306016-31.82463-23.463307l-94.659527-277.245984 302.394456-356.408441a25.801575 25.801575 0 0 0-2.934929-36.227024 25.801575 25.801575 0 0 0-36.227024 2.926866L410.688504 649.240189c-5.869858 6.909984-7.538898 16.335622-4.821669 24.914646l99.473134 290.662803c11.723591 34.340283 42.717732 57.166614 78.936692 58.214803h2.725292c35.186898 0 66.172976-20.729953 79.581732-53.401197l349.917732-850.403779c13.400693-32.663181 6.281071-68.680567-18.851275-93.603276-25.124283-25.124283-60.932031-32.251969-93.603276-18.843213L53.433449 356.908346C19.931717 370.728315-1.007874 402.980283 0.040315 439.207307c1.257827 36.017386 24.076094 67.003465 58.424441 78.735118z" fill="#2c2c2c" p-id="6589"></path></svg>