<?xml version="1.0" standalone="no"?><!DOCTYPE svg PUBLIC "-//W3C//DTD SVG 1.1//EN" "http://www.w3.org/Graphics/SVG/1.1/DTD/svg11.dtd"><svg t="1779258684750" class="icon" viewBox="0 0 1024 1024" version="1.1" xmlns="http://www.w3.org/2000/svg" p-id="22868" xmlns:xlink="http://www.w3.org/1999/xlink" width="200" height="200"><path d="M0 0v1024h1024V0z m299.989333 132.821333A173.354667 173.354667 0 0 1 414.72 176.64a137.813333 137.813333 0 0 1 35.84 97.28A134.826667 134.826667 0 0 1 358.4 407.04l104.96 153.6H353.28L261.12 422.4H186.88v138.24H92.16V133.12c68.693333-0.170667 139.989333 0.384 207.829333-0.298667z m235.050667 0.298667h168.96c135.68 0 227.84 92.16 227.84 215.04 0 120.32-92.16 215.04-227.84 215.04h-168.96z m173.610667 84.309333c-25.898667 0.426667-52.693333 0.170667-78.890667 0.170667v258.56h74.24a122.965333 122.965333 0 0 0 130.56-128 123.605333 123.605333 0 0 0-125.909333-130.730667zM184.277333 217.6v122.88H281.6c46.08 0 71.68-25.6 71.68-61.44 0-40.96-28.16-61.44-74.24-61.44zM92.16 832h384V896h-384z" p-id="22869" fill="#2c2c2c"></path></svg>