<?xml version="1.0" standalone="no"?><!DOCTYPE svg PUBLIC "-//W3C//DTD SVG 1.1//EN" "http://www.w3.org/Graphics/SVG/1.1/DTD/svg11.dtd"><svg t="1779258551796" class="icon" viewBox="0 0 1024 1024" version="1.1" xmlns="http://www.w3.org/2000/svg" p-id="14378" xmlns:xlink="http://www.w3.org/1999/xlink" width="200" height="200"><path d="M906.06864 514.706791c0-12.023184-8.587989-18.893575-19.466108-15.45838L137.157383 736.849433c-10.878119 3.435195-19.466108 16.030912-19.466108 28.054096V1007.657344c0 12.023184 8.587989 18.893575 19.466108 15.458379l748.872617-237.601021c10.878119-3.435195 19.466108-16.030912 19.466108-28.054096V514.706791z" p-id="14379" fill="#2c2c2c"></path><path d="M117.691275 507.263867c0 12.023184 8.587989 24.618901 19.466108 28.054097L886.03 772.918985c10.878119 3.435195 19.466108-3.435195 19.466108-15.458379V514.706791c0-12.023184-8.587989-24.618901-19.466108-28.054097L137.157383 249.051673c-10.878119-3.435195-19.466108 3.435195-19.466108 15.45838v242.753814z" p-id="14380" fill="#2c2c2c"></path><path d="M906.06864 16.603445c0-12.023184-8.587989-18.893575-19.466108-15.45838L137.157383 238.173554c-10.878119 3.435195-19.466108 16.030912-19.466108 28.054096v242.753815c0 12.023184 8.587989 18.893575 19.466108 15.45838l748.872617-237.601022c10.878119-3.435195 19.466108-16.030912 19.466108-28.054096 0.572533 0 0.572533-242.181282 0.572532-242.181282z" p-id="14381" fill="#2c2c2c"></path></svg>