<?xml version="1.0" standalone="no"?><!DOCTYPE svg PUBLIC "-//W3C//DTD SVG 1.1//EN" "http://www.w3.org/Graphics/SVG/1.1/DTD/svg11.dtd"><svg t="1779258887954" class="icon" viewBox="0 0 1029 1024" version="1.1" xmlns="http://www.w3.org/2000/svg" p-id="12034" xmlns:xlink="http://www.w3.org/1999/xlink" width="200.9765625" height="200"><path d="M502.258882 414.777648c-10.740316 2.890013-27.005363-2.138091-37.612048 7.784486l-0.017951-0.033906c-64.3322-136.175641-122.629081-360.024972-46.331949-418.543242 122.43761 44.159952 99.479062 338.245167 83.961948 410.792662z m57.068277 15.010515c3.462431 0.757905 8.099614 2.185959 12.633085 4.798737 102.516667-70.493173 173.211283-185.646914 212.337148-296.737884 4.627211-50.51439-2.519038-72.904508-18.147844-75.028637-113.071496 6.087176-221.818943 311.0603-206.822389 366.967784z m-45.290827-20.976027c-0.73796 2.818211-0.159559 3.821438 1.807006 5.133811 15.273787 10.183854 29.476534 11.2888 30.938493 7.686756 10.365353-92.071535 41.271934-180.886072 95.920896-265.931027 10.506961-91.481167-19.2129-142.400437-36.71054-151.525219-19.045363-9.932549-67.184318 34.55051-87.8871 133.678543 6.906911 66.783426 20.782562 154.20581-4.068755 270.957136zM373.648333 154.299551c-48.988607-71.781612-114.146525-100.181122-128.229602-87.278781-15.527087 14.226681-25.742853 73.437037 49.780418 201.273725 47.109799 41.136309 115.440947 111.104931 152.584291 168.274926 1.880802-4.405823 5.624455-7.979945 10.722366-10.953727-32.444331-63.133513-59.800724-149.115877-84.857473-271.316143z m232.250113 330.378907c0.538512 4.411807 1.416086 15.730524-1.988504 25.613211 77.166729 29.316975 262.247208 17.79083 320.71362 3.751632 59.312075-14.238648 108.520075-53.009494 97.943307-77.098916-8.911371-20.297901-28.590981-29.961194-49.610887-34.548516-149.367183-5.1019-272.798048 29.687949-367.057536 82.282589z m-8.221278-28.086375c3.141318 4.228314 5.813932 8.963228 7.375615 13.508665 92.542234-50.486467 197.67168-76.021893 303.112267-80.613203 51.964382-40.246767 127.649206-118.041759 16.739735-119.445879-24.109367-0.305157-64.906613 12.479509-104.74451 27.264647-60.205605 56.651428-128.92169 116.348439-222.485102 159.28577z m237.220376-191.570543c22.745138-29.291046 41.523239-61.90092 47.006086-105.761698 4.080722-32.651758-26.069949-40.254745-88.764674-7.471351-44.919852 122.92626-121.761479 222.146039-215.105497 287.236144 3.931135 1.069045 7.401544 5.638417 9.42196 7.104365 61.51-14.799099 188.873995-120.299519 247.442125-181.10746zM525.474719 589.257426l-14.912784 4.387873c-12.022772 50.217211-17.902521 125.094268-21.652159 208.521693 15.766425 169.13455 68.560514 219.573149 87.611861 216.020967 41.834379-4.706991 51.673187-103.097063 44.636634-145.577657-16.841454-101.678982-51.184538-221.627472-95.683552-283.352876z m-61.392325-14.304466a154.82809 154.82809 0 0 1-5.955541-3.464425C312.976018 621.370672 121.291789 840.018379 172.021584 905.585167c65.883912 66.354611 275.059797-217.159819 292.06081-330.632207z m-10.889903-6.653611c-8.917354-6.077204-17.032925-13.468775-23.570856-23.449192l-10.889902 1.236583c-66.639823 30.144687-138.644817 50.107514-210.065427 66.169123-71.65197 39.706261-162.239606 115.137785-143.782617 152.662077 20.517295 41.718699 110.305142 5.985458 145.438042-9.996372 76.311093-85.914552 157.41893-154.814129 242.872754-186.624213z m181.292947 302.414196c26.187623 39.271463 79.859287 109.194212 120.054198 91.586874 43.886707-19.226861 1.232593-123.373025-25.569333-177.030727-58.693784-55.133623-113.974999-116.829111-157.08585-201.91595-4.395851-3.673846-8.871481-7.606976-11.761494-10.664525-3.470409 8.165433-18.857881 13.11974-18.857881 13.11974l0.522556 4.529481c56.934646 95.643663 75.8384 197.934953 92.697804 280.375107z m155.474304-224.194378c61.005395 16.588154 193.259873 47.408972 220.686074-8.925332 7.812408-16.047648-27.553847-67.888372-152.92136-101.934277-104.49121 10.748294-182.902499 12.000832-259.193647-13.692158-1.386169 9.599469-13.037966 18.000251-5.6085 25.850555 77.294376 22.11089 145.689348 60.432977 197.037433 98.701212z m126.562211 192.376316c47.558559-53.212931-176.801361-246.408981-335.127783-280.618435-1.18672 1.465948-2.848128 2.971787-4.764831 4.607267 73.431053 164.166282 256.002467 319.409225 339.892614 276.011168z m-575.421665-8.95525c-12.601173 54.688852-26.135767 153.832841 10.211777 169.1166 44.477075 18.698322 96.814427-93.2782 123.716077-179.434085 4.579344-91.694577 9.898642-178.341106 21.386892-222.997685l-22.731177-7.712684-5.012147 4.455686c-15.67069 66.119261-72.685115 161.322142-127.571422 236.574162zM85.381039 491.451739c-44.078178 7.120321-84.877418 38.302142-82.448132 58.464417 3.570133 29.652048 74.081256 65.602689 196.608618 51.651248 104.586945-18.935666 179.477963-45.227003 225.833846-63.338946 4.174463-8.321003 4.740897-18.241584 0.229366-29.93726-81.135759-0.771867-137.470064-49.594931-340.223698-16.839459z m201.505085-214.128199c-65.347395-51.017001-145.733226-86.506914-189.935062-70.686638-50.384748 18.030169 18.552724 97.715935 94.15378 155.199065 70.545029 39.712244 165.600318 82.432176 241.089683 101.266124 2.580867-4.022882 10.267623-7.997896 13.141679-14.380257-0.071802-0.011967-0.169531 0-0.229366-0.025928-8.775746-23.37739-86.165857-116.075194-158.220714-171.370371z m135.814639 222.838126c-0.668153-8.041774 0.684109-15.441324 5.121845-21.853601l-23.016388-15.632795c-57.395372-15.118217-136.205559-49.961917-200.260526-80.387826-165.610291-33.497421-277.122097 22.623474-124.308439 96.912157 183.516801-28.235962 266.435632 13.434869 342.463508 20.962065z" p-id="12035" fill="#2c2c2c"></path></svg>