<?xml version="1.0" standalone="no"?><!DOCTYPE svg PUBLIC "-//W3C//DTD SVG 1.1//EN" "http://www.w3.org/Graphics/SVG/1.1/DTD/svg11.dtd"><svg t="1779258316589" class="icon" viewBox="0 0 1024 1024" version="1.1" xmlns="http://www.w3.org/2000/svg" p-id="5624" xmlns:xlink="http://www.w3.org/1999/xlink" width="200" height="200"><path d="M936.533333 209.194667a44.586667 44.586667 0 0 0-2.56-7.082667 50.261333 50.261333 0 0 0-13.226666-18.133333 50.304 50.304 0 0 0-12.373334-8.405334l-175.701333-85.077333a54.058667 54.058667 0 0 0-32-4.394667 53.589333 53.589333 0 0 0-28.672 14.805334L388.522667 416 223.061333 279.594667l-14.378666-11.989334a35.072 35.072 0 0 0-17.621334-8.106666c-0.938667-0.170667-1.877333-0.298667-2.816-0.298667-0.768-0.128-1.706667-0.128-2.517333-0.128-1.322667 0-2.56 0-3.84 0.128a13.397333 13.397333 0 0 0-3.370667 0.554667 29.568 29.568 0 0 0-6.656 1.962666l-64.64 26.837334a37.077333 37.077333 0 0 0-15.872 13.056c-3.882667 5.888-6.016 12.8-6.016 19.754666v381.269334c0 6.954667 2.133333 13.866667 5.973334 19.754666 3.882667 5.717333 9.472 10.24 15.914666 13.056l64.64 27.221334a36.266667 36.266667 0 0 0 19.2 2.389333 36.266667 36.266667 0 0 0 17.621334-8.106667l14.378666-12.544 165.461334-136.448 283.477333 315.136c0.938667 0.938667 2.005333 1.877333 3.072 2.816a53.589333 53.589333 0 0 0 25.6 11.989334c10.794667 1.877333 21.973333 0.256 32-4.394667l175.744-85.077333a45.653333 45.653333 0 0 0 6.528-3.754667c4.138667-2.773333 7.978667-6.272 11.178667-9.856a53.76 53.76 0 0 0 12.544-34.688V223.872c0-4.949333-0.682667-9.898667-2.133334-14.677333zM192 634.624V389.376l110.250667 122.709333L192 634.581333z m312.917333-122.581333L725.333333 330.325333v363.434667L504.917333 512z" fill="#323544" p-id="5625"></path></svg>