<?xml version="1.0" standalone="no"?><!DOCTYPE svg PUBLIC "-//W3C//DTD SVG 1.1//EN" "http://www.w3.org/Graphics/SVG/1.1/DTD/svg11.dtd"><svg t="1779258566748" class="icon" viewBox="0 0 1024 1024" version="1.1" xmlns="http://www.w3.org/2000/svg" p-id="15477" xmlns:xlink="http://www.w3.org/1999/xlink" width="200" height="200"><path d="M198.4 825.642667h627.2V198.4H198.4v627.242667z m294.442667-73.642667H252.842667v-40.32h240v40.32zM668.842667 270.08c35.157333 0 70.314667 12.8 97.237333 33.92l-30.08 44.8a118.058667 118.058667 0 0 0-67.157333-25.6c-21.162667 0-33.962667 9.6-33.962667 24.32 0 17.237333 11.562667 23.68 56.277333 34.56 52.522667 14.72 83.242667 33.92 83.242667 80 0 53.12-40.32 83.2-96 83.2a184.32 184.32 0 0 1-112-42.88l33.237333-41.642667c24.32 19.2 48 32 78.762667 32 23.68 0 38.4-9.6 38.4-25.6 0-14.762667-9.685333-22.4-52.48-33.92-53.162667-14.08-87.04-28.842667-87.04-81.28v-1.877333c0-48 38.4-80 91.562667-80z m-368 5.12l40.277333 153.6 44.8-153.6h44.8l44.842667 153.6 39.637333-153.6h62.762667l-76.8 265.6h-49.962667l-42.837333-153.6-43.52 153.6H315.562667L238.72 275.2h62.122667z" fill="#2c2c2c" p-id="15478"></path><path d="M1024 346.88l-81.877333-202.88L890.88 21.12 652.842667 0l-37.162667 35.84-47.36-17.92-150.4 80L256 1.92l-256 104.96 137.6 817.962667L704 1024l35.84-181.76 6.4-3.882667H185.6V185.6h652.8v598.4l185.6-110.08-112-209.92" fill="#2c2c2c" p-id="15479"></path></svg>