<?xml version="1.0" standalone="no"?><!DOCTYPE svg PUBLIC "-//W3C//DTD SVG 1.1//EN" "http://www.w3.org/Graphics/SVG/1.1/DTD/svg11.dtd"><svg t="1779258458833" class="icon" viewBox="0 0 1024 1024" version="1.1" xmlns="http://www.w3.org/2000/svg" p-id="7847" xmlns:xlink="http://www.w3.org/1999/xlink" width="200" height="200"><path d="M1024.512 459.776c-4.608 2.048-9.216 6.144-13.824 5.632-44.032-1.536-79.872 33.792-79.36 79.872 1.024 69.12 0 138.24 0 207.36 0 38.4-24.064 72.704-60.416 86.528-35.328 13.824-75.264 4.096-99.84-24.064-13.824-17.408-26.624-35.328-38.4-53.76-59.904-86.528-120.32-173.056-180.224-259.584-20.992-30.72-54.784-43.008-88.064-32.256-29.696 9.216-50.176 36.352-51.712 67.584-1.024 63.488 0 127.488-0.512 190.976 0.512 13.824 0 27.648-2.048 41.472-8.192 38.912-32.256 64.512-71.68 73.216-38.4 8.192-70.656-5.12-93.696-36.352-29.696-40.448-57.856-82.432-86.528-123.904-48.64-70.656-97.792-140.8-146.432-211.456-4.608-7.168-8.192-14.848-11.776-22.016V253.952c8.704-8.704 13.312-7.68 20.48 3.072C97.792 368.64 175.104 479.744 252.416 591.36c17.408 24.576 40.448 37.376 70.656 35.84 36.864-3.072 66.048-31.744 68.608-68.608 1.024-15.872 0-31.744 0.512-47.104V344.576c0-46.592 29.696-83.968 73.728-94.208 36.352-7.68 74.24 7.168 95.232 38.4 58.368 83.456 116.224 166.912 174.08 250.88 12.288 17.92 25.088 35.84 37.376 53.76 20.48 28.672 53.76 40.96 85.504 30.72 32.256-10.24 54.272-40.448 53.248-74.752V345.088c0-57.344 40.96-97.792 98.304-96.768 5.12 1.024 9.728 3.072 14.336 5.632v206.336z" p-id="7848" fill="#2c2c2c"></path></svg>